<?xml version="1.0" standalone="no"?><!DOCTYPE svg PUBLIC "-//W3C//DTD SVG 1.1//EN" "http://www.w3.org/Graphics/SVG/1.1/DTD/svg11.dtd"><svg height="500" legacy-metrics="false" node-id="1" sillyvg="true" template-height="500" template-width="500" version="1.1" viewBox="0 0 500 500" width="500" xmlns="http://www.w3.org/2000/svg" xmlns:xlink="http://www.w3.org/1999/xlink"><defs node-id="16"><clipPath id="SVGID_2_" node-id="9"><path d="M 311.67 258.64 C 273.80 297.88 254.09 295.33 254.09 295.33 L 198.20 243.29 C 198.20 243.29 199.52 217.77 233.19 182.89 C 269.21 145.57 315.99 132.26 337.66 153.18 C 359.33 174.10 347.70 221.31 311.67 258.64 Z" fill="#000000" fill-rule="nonzero" node-id="19" stroke="none" target-height="152.00209" target-width="150.36642" target-x="198.199" target-y="143.3279"></path></clipPath></defs><path d="M 252.73 169.90 C 252.73 169.90 207.61 151.35 165.10 192.83 L 215.78 235.81 L 252.73 169.90 Z" fill="#2b4bb1" fill-rule="nonzero" node-id="24" stroke="none" target-height="70.05437" target-width="87.63699" target-x="165.097" target-y="165.75563"></path><path d="M 322.51 231.57 C 322.51 231.57 347.80 273.29 313.38 321.69 L 263.09 278.25 L 322.51 231.57 Z" fill="#2b4bb1" fill-rule="nonzero" node-id="26" stroke="none" target-height="90.12601" target-width="68.34335" target-x="263.091" target-y="231.569"></path><g node-id="44"><path d="M 311.67 258.64 C 273.80 297.88 254.09 295.33 254.09 295.33 L 198.20 243.29 C 198.20 243.29 199.52 217.77 233.19 182.89 C 269.21 145.57 315.99 132.26 337.66 153.18 C 359.33 174.10 347.70 221.31 311.67 258.64 Z" fill="#5a78eb" fill-rule="nonzero" group-id="1" node-id="30" stroke="none" target-height="152.00209" target-width="150.36642" target-x="198.199" target-y="143.3279"></path><g node-id="45"><g clip-path="url(#SVGID_2_)" group-id="1,2" node-id="32"><path d="M 216.63 124.72 L 368.23 269.99 L 383.37 127.23 L 276.61 94.65 Z" fill="#fa6464" fill-rule="nonzero" group-id="1,2" node-id="34" stroke="none" target-height="175.341" target-width="166.73999" target-x="216.633" target-y="94.652"></path></g></g></g><path d="M 290.61 228.22 C 290.61 240.36 280.77 250.19 268.64 250.19 C 256.51 250.19 246.67 240.36 246.67 228.22 C 246.67 216.09 256.51 206.26 268.64 206.26 C 280.77 206.26 290.61 216.09 290.61 228.22 Z" fill="#ffffff" fill-rule="nonzero" node-id="38" stroke="none" target-height="43.93399" target-width="43.934006" target-x="246.674" target-y="206.257"></path><path d="M 223.68 349.94 C 256.98 313.34 218.04 284.17 218.04 284.17 C 218.04 284.17 187.04 246.66 152.08 281.67 C 152.08 281.67 144.10 288.37 137.91 301.54 C 137.91 301.54 135.56 305.66 171.90 294.22 C 171.90 294.22 140.07 324.27 152.95 352.44 C 181.70 363.96 210.20 330.73 210.20 330.73 C 200.50 367.58 204.51 365.04 204.51 365.04 C 217.37 358.22 223.68 349.94 223.68 349.94 Z" fill="#fdd740" fill-rule="nonzero" node-id="40" stroke="none" target-height="98.2663" target-width="99.2206" target-x="137.905" target-y="266.7727"></path><path d="M 208.80 306.25 C 208.80 312.94 203.37 318.37 196.68 318.37 C 189.99 318.37 184.56 312.94 184.56 306.25 C 184.56 299.55 189.99 294.13 196.68 294.13 C 203.37 294.13 208.80 299.55 208.80 306.25 Z" fill="#fb6e42" fill-rule="nonzero" node-id="42" stroke="none" target-height="24.23999" target-width="24.23999" target-x="184.559" target-y="294.126"></path></svg>