<?xml version="1.0" standalone="no"?><!DOCTYPE svg PUBLIC "-//W3C//DTD SVG 1.1//EN" "http://www.w3.org/Graphics/SVG/1.1/DTD/svg11.dtd"><svg height="500" legacy-metrics="false" node-id="1" sillyvg="true" template-height="500" template-width="500" version="1.1" viewBox="0 0 500 500" width="500" xmlns="http://www.w3.org/2000/svg" xmlns:xlink="http://www.w3.org/1999/xlink"><defs node-id="63"><clipPath id="XMLID_2_" node-id="19"><path d="M 336.41 370.78 L 165.15 370.78 C 158.06 370.78 152.25 364.98 152.25 357.88 L 152.25 292.70 C 152.25 285.61 158.06 279.81 165.15 279.81 L 336.41 279.81 C 343.50 279.81 349.30 285.61 349.30 292.70 L 349.30 357.88 C 349.31 364.98 343.50 370.78 336.41 370.78 Z" fill="#000000" fill-rule="nonzero" node-id="66" stroke="none" target-height="90.97098" target-width="197.05199" target-x="152.252" target-y="279.808"></path></clipPath><clipPath id="SVGID_1_" node-id="28"><path d="M 169.15 224.02 L 169.15 224.02 C 164.78 234.44 169.77 246.42 180.24 250.67 L 261.51 283.68 L 275.27 253.49 L 194.88 214.32 C 185.11 209.56 173.35 214.00 169.15 224.02 Z" fill="#000000" fill-rule="nonzero" node-id="70" stroke="none" target-height="71.21567" target-width="107.69049" target-x="167.5765" target-y="212.46533"></path></clipPath><clipPath id="SVGID_5_" node-id="45"><path d="M 235.40 334.40 L 282.88 234.34 C 288.25 222.56 301.95 217.11 313.94 221.99 L 313.94 221.99 C 327.10 227.34 332.81 242.85 326.27 255.46 L 273.65 354.11 L 235.40 334.40 Z" fill="#000000" fill-rule="nonzero" node-id="74" stroke="none" target-height="133.90742" target-width="93.55676" target-x="235.397" target-y="220.19759"></path></clipPath><clipPath id="SVGID_8_" node-id="57"><path d="M 290.70 371.87 L 253.54 372.77 L 221.66 435.02 L 224.01 435.23 L 226.52 435.26 L 230.26 435.02 L 234.29 434.42 L 239.15 433.20 L 242.39 432.08 L 245.81 430.55 L 249.45 428.56 L 252.88 426.27 L 256.37 423.40 L 259.92 419.89 L 263.12 416.07 L 266.26 411.46 L 269.33 405.97 L 293.24 405.15 L 290.70 371.87 Z" fill="#000000" fill-rule="nonzero" node-id="78" stroke-linecap="butt" stroke-width="0.9999807" target-height="63.391205" target-width="71.58505" target-x="221.65524" target-y="371.86517"></path></clipPath></defs><path d="M 275.27 77.89 C 275.27 89.10 266.18 98.19 254.97 98.19 C 243.75 98.19 234.67 89.10 234.67 77.89 C 234.67 66.68 243.75 57.59 254.97 57.59 C 266.18 57.59 275.27 66.68 275.27 77.89 Z" fill="#ffb7b7" fill-rule="nonzero" node-id="84" stroke="none" target-height="40.600002" target-width="40.59999" target-x="234.666" target-y="57.591"></path><path d="M 234.84 80.52 C 234.84 80.52 242.16 67.06 246.78 73.60 C 251.39 80.13 258.69 74.49 261.77 71.54 C 264.84 68.60 270.21 77.06 274.06 80.52 C 277.90 83.98 279.84 63.60 269.84 56.30 C 259.85 48.99 258.74 50.91 254.29 53.61 C 249.85 56.30 239.11 50.72 236.04 59.56 C 232.96 68.40 229.07 70.14 234.84 80.52 Z" fill="#26205c" fill-rule="nonzero" node-id="86" stroke="none" target-height="29.689274" target-width="45.27156" target-x="231.87367" target-y="51.203373"></path><path d="M 349.64 283.68 L 153.18 283.68 C 149.54 283.68 146.57 280.71 146.57 277.07 L 146.57 125.18 C 146.57 121.55 149.54 118.57 153.18 118.57 L 349.64 118.57 C 353.28 118.57 356.25 121.55 356.25 125.18 L 356.25 277.07 C 356.25 280.71 353.28 283.68 349.64 283.68 Z" fill="#2f3a56" fill-rule="nonzero" node-id="88" stroke="none" target-height="165.108" target-width="209.685" target-x="146.568" target-y="118.574"></path><path d="M 293.99 256.08 L 218.94 256.08 C 198.59 256.08 181.94 239.43 181.94 219.08 L 181.94 151.40 C 181.94 131.04 198.59 114.39 218.94 114.39 L 293.99 114.39 C 314.34 114.39 330.99 131.04 330.99 151.40 L 330.99 219.08 C 330.99 239.43 314.34 256.08 293.99 256.08 Z" fill="#5a78ec" fill-rule="nonzero" node-id="90" stroke="none" target-height="141.68903" target-width="149.05301" target-x="181.936" target-y="114.395"></path><path d="M 226.15 212.41 L 294.36 212.41 L 294.36 256.08 L 226.15 256.08 Z" fill="#38569f" fill-rule="nonzero" node-id="92" stroke="none" target-height="43.677017" target-width="68.211" target-x="226.147" target-y="212.407"></path><path d="M 201.14 220.20 L 201.14 161.60 L 312.80 161.60 L 312.80 227.28 L 201.14 222.48 Z" fill="#4c6ac8" fill-rule="nonzero" node-id="94" stroke="none" target-height="65.68399" target-width="111.66301" target-x="201.136" target-y="161.6"></path><path d="M 213.77 169.42 C 213.22 169.42 212.77 168.97 212.77 168.42 L 212.77 146.44 C 212.77 145.89 213.22 145.44 213.77 145.44 C 214.32 145.44 214.77 145.89 214.77 146.44 L 214.77 168.42 C 214.77 168.97 214.32 169.42 213.77 169.42 Z" fill="#232323" fill-rule="nonzero" node-id="96" stroke="none" target-height="23.979004" target-width="2" target-x="212.768" target-y="145.442"></path><path d="M 301.21 169.42 C 300.66 169.42 300.21 168.97 300.21 168.42 L 300.21 146.44 C 300.21 145.89 300.66 145.44 301.21 145.44 C 301.76 145.44 302.21 145.89 302.21 146.44 L 302.21 168.42 C 302.21 168.97 301.76 169.42 301.21 169.42 Z" fill="#232323" fill-rule="nonzero" node-id="98" stroke="none" target-height="23.979004" target-width="2" target-x="300.21" target-y="145.442"></path><path d="M 306.99 230.82 L 206.95 230.82 C 205.70 230.82 204.67 229.80 204.67 228.55 L 204.67 166.40 C 204.67 165.15 205.70 164.13 206.95 164.13 L 306.99 164.13 C 308.24 164.13 309.26 165.15 309.26 166.40 L 309.26 228.55 C 309.26 229.80 308.24 230.82 306.99 230.82 Z" fill="#7e78cd" fill-rule="nonzero" node-id="100" stroke="none" target-height="66.69499" target-width="104.59" target-x="204.673" target-y="164.126"></path><path d="M 266.88 283.68 L 199.05 283.68 C 199.05 283.68 176.88 269.54 175.87 244.62 L 266.88 283.68 Z" fill="#13113d" fill-rule="nonzero" node-id="102" stroke="none" target-height="39.06201" target-width="91.011" target-x="175.873" target-y="244.62"></path><path d="M 162.10 366.99 L 142.40 423.45 L 154.91 423.45 L 197.73 363.96 Z" fill="#2f3a56" fill-rule="nonzero" node-id="104" stroke="none" target-height="59.494995" target-width="55.326996" target-x="142.399" target-y="363.958"></path><path d="M 338.95 366.99 L 358.65 423.45 L 346.15 423.45 L 303.33 363.96 Z" fill="#2f3a56" fill-rule="nonzero" node-id="106" stroke="none" target-height="59.494995" target-width="55.32602" target-x="303.326" target-y="363.958"></path><g node-id="169"><path d="M 336.41 370.78 L 165.15 370.78 C 158.06 370.78 152.25 364.98 152.25 357.88 L 152.25 292.70 C 152.25 285.61 158.06 279.81 165.15 279.81 L 336.41 279.81 C 343.50 279.81 349.30 285.61 349.30 292.70 L 349.30 357.88 C 349.31 364.98 343.50 370.78 336.41 370.78 Z" fill="#404f70" fill-rule="nonzero" group-id="1" node-id="110" stroke="none" target-height="90.97098" target-width="197.05199" target-x="152.252" target-y="279.808"></path><g node-id="173"><g clip-path="url(#XMLID_2_)" group-id="1,5" node-id="112"><path d="M 156.80 269.22 L 181.94 269.22 L 181.94 378.74 L 156.80 378.74 Z" fill="#2f3a56" fill-rule="nonzero" group-id="1,5" node-id="114" stroke="none" target-height="109.51599" target-width="25.137009" target-x="156.799" target-y="269.221"></path></g></g><g clip-path="url(#XMLID_2_)" group-id="1,6" node-id="117"><path d="M 319.12 263.41 L 356.25 263.41 L 356.25 391.31 L 319.12 391.31 Z" fill="#333f59" fill-rule="nonzero" group-id="1,6" node-id="119" stroke="none" target-height="127.89499" target-width="37.137024" target-x="319.115" target-y="263.411"></path></g></g><path d="M 241.14 337.36 L 237.14 345.39 L 266.88 360.55 L 273.14 348.95 Z" fill="#ffb7b7" fill-rule="nonzero" node-id="123" stroke="none" target-height="23.19101" target-width="35.999985" target-x="237.136" target-y="337.356"></path><path d="M 169.15 224.02 L 169.15 224.02 C 164.78 234.44 169.77 246.42 180.24 250.67 L 261.51 283.68 L 275.27 253.49 L 194.88 214.32 C 185.11 209.56 173.35 214.00 169.15 224.02 Z" fill="#26205c" fill-rule="nonzero" group-id="2" node-id="127" stroke="none" target-height="71.21567" target-width="107.69049" target-x="167.5765" target-y="212.46533"></path><g clip-path="url(#SVGID_1_)" group-id="2,7" node-id="129"><path d="M 250.78 289.68 L 273.14 240.42 L 298.90 248.04 L 264.04 288.93 Z" fill="#13113d" fill-rule="nonzero" group-id="2,7" node-id="131" stroke="none" target-height="49.262985" target-width="48.127" target-x="250.778" target-y="240.421"></path></g><g clip-path="url(#SVGID_1_)" group-id="2,8" node-id="134"><path d="M 277.18 285.35 C 277.05 285.35 276.93 285.32 276.81 285.28 L 185.61 248.97 C 169.16 242.22 152.23 224.18 151.52 223.42 C 151.14 223.01 151.17 222.38 151.57 222.01 C 151.97 221.63 152.61 221.65 152.98 222.06 C 153.16 222.24 170.33 240.54 186.36 247.12 L 277.55 283.42 C 278.06 283.62 278.31 284.20 278.11 284.72 C 277.95 285.11 277.57 285.35 277.18 285.35 Z" fill="#ffffff" fill-rule="nonzero" group-id="2,8" node-id="136" stroke="none" target-height="63.608475" target-width="126.852844" target-x="151.25314" target-y="221.73851"></path></g><g clip-path="url(#SVGID_1_)" group-id="2,9" node-id="139"><path d="M 15.20 224.24 C 17.13 224.24 17.13 221.24 15.20 221.24 C 13.27 221.24 13.27 224.24 15.20 224.24 L 15.20 224.24 Z" fill="#ffffff" fill-rule="nonzero" group-id="2,9" node-id="141" stroke="none" target-height="3" target-width="2.897624" target-x="13.750375" target-y="221.237"></path></g><path d="M 235.40 334.40 L 282.88 234.34 C 288.25 222.56 301.95 217.11 313.94 221.99 L 313.94 221.99 C 327.10 227.34 332.81 242.85 326.27 255.46 L 273.65 354.11 L 235.40 334.40 Z" fill="#26205c" fill-rule="nonzero" group-id="3" node-id="147" stroke="none" target-height="133.90742" target-width="93.55676" target-x="235.397" target-y="220.19759"></path><g clip-path="url(#SVGID_5_)" group-id="3,10" node-id="149"><path d="M 322.02 212.41 C 322.02 212.41 328.99 231.02 322.78 244.62 L 270.11 345.39" fill="#26205c" fill-rule="nonzero" group-id="3,10" node-id="151" stroke="none" target-height="132.98201" target-width="55.249237" target-x="270.105" target-y="212.407"></path></g><path d="M 237.14 345.39 L 218.57 377.60 L 255.14 437.22 C 255.14 437.22 275.27 413.47 255.14 381.39 L 266.88 360.55 L 237.14 345.39 Z" fill="#26205c" fill-rule="nonzero" group-id="4" node-id="157" stroke="none" target-height="91.832" target-width="48.315002" target-x="218.568" target-y="345.389"></path><g clip-path="url(#SVGID_8_)" group-id="4,11" node-id="159"><path d="M 219.45 370.08 L 262.97 441.48 L 261.26 442.52 L 217.74 371.12 Z" fill="#ffffff" fill-rule="nonzero" group-id="4,11" node-id="161" stroke-linecap="butt" stroke-width="0.9999807" target-height="72.44476" target-width="45.22415" target-x="217.74277" target-y="370.0798"></path></g><path d="M 154.91 375.72 L 154.91 375.72 C 143.37 375.72 133.94 366.28 133.94 354.75 L 133.94 255.22 C 133.94 243.68 143.37 234.25 154.91 234.25 L 154.91 234.25 C 166.44 234.25 175.87 243.68 175.87 255.22 L 175.87 354.75 C 175.87 366.28 166.44 375.72 154.91 375.72 Z" fill="#404f70" fill-rule="nonzero" node-id="165" stroke="none" target-height="141.473" target-width="41.936005" target-x="133.937" target-y="234.247"></path><path d="M 346.90 375.72 L 346.90 375.72 C 335.37 375.72 325.94 366.28 325.94 354.75 L 325.94 255.22 C 325.94 243.68 335.37 234.25 346.90 234.25 L 346.90 234.25 C 358.44 234.25 367.87 243.68 367.87 255.22 L 367.87 354.75 C 367.87 366.28 358.44 375.72 346.90 375.72 Z" fill="#404f70" fill-rule="nonzero" node-id="167" stroke="none" target-height="141.473" target-width="41.935974" target-x="325.937" target-y="234.247"></path></svg>