<svg t="1680342915028" class="icon" viewBox="0 0 1024 1024" version="1.1" xmlns="http://www.w3.org/2000/svg" p-id="4123" xmlns:xlink="http://www.w3.org/1999/xlink" width="200" height="200"><path d="M871.488 390.464a29.984 29.984 0 0 0-29.792-28.736v-0.032h-0.224c-0.48 0-0.8-0.224-1.28-0.192-0.288 0-0.48 0.16-0.736 0.16l-191.2-1.984 130.528-284.928-0.128-0.064a29.76 29.76 0 0 0 3.008-13.6 30.112 30.112 0 0 0-31.328-28.96c-0.32 0-0.544 0.192-0.832 0.192l-348.736-0.128c-0.448 0-0.8-0.192-1.28-0.192a29.888 29.888 0 0 0-26.336 18.368l-0.096 0.192c-0.192 0.544-0.48 1.056-0.672 1.6L155.072 559.52a30.08 30.08 0 0 0-2.592 12.928 30.112 30.112 0 0 0 31.296 28.96l0.032-0.032c0.288 0 0.544-0.16 0.832-0.192h229.856l-81.376 353.92 0.288 0.064c-0.544 2.592-1.312 5.088-1.248 7.776a30.208 30.208 0 0 0 31.296 29.024 29.824 29.824 0 0 0 21.696-10.944l477.792-568.48c0.448-0.416 0.736-0.896 1.152-1.344l0.224-0.32a29.984 29.984 0 0 0 7.168-20.416zM419.36 847.36l61.952-269.344-0.32-0.096c0.576-2.528 1.344-5.088 1.248-7.808a30.176 30.176 0 0 0-31.296-28.96c-0.288 0-0.544 0.192-0.832 0.192h-222.08l192.384-449.28 284.48 0.128-130.272 284.448 0.128 0.064a29.856 29.856 0 0 0-3.008 13.6 29.984 29.984 0 0 0 29.824 28.736h0.16c0.512 0 0.864 0.256 1.344 0.224 0.256 0 0.512-0.192 0.736-0.192l173.888 1.792L419.36 847.36z" fill="#D2C14D" p-id="4124"></path><path d="M603.808 419.136l173.888 1.792L419.36 847.36l61.952-269.344-0.32-0.096c0.576-2.528 1.344-5.088 1.248-7.808a30.176 30.176 0 0 0-31.296-28.96c-0.288 0-0.544 0.192-0.832 0.192h-222.08l192.384-449.28 284.48 0.128-130.272 284.448 0.128 0.064a29.856 29.856 0 0 0-3.008 13.6 29.984 29.984 0 0 0 29.824 28.736h0.16c0.512 0 0.864 0.256 1.344 0.224 0.256 0.064 0.48-0.128 0.736-0.128z" fill="#EEDD66" p-id="4125"></path></svg>